<mxfile host="app.diagrams.net" agent="Mozilla/5.0 (Windows NT 10.0; Win64; x64) AppleWebKit/537.36 (KHTML, like Gecko) Chrome/132.0.0.0 Safari/537.36 Edg/132.0.0.0" version="26.0.11">
  <diagram name="Page-1" id="9An-Dm4P1PhMl5eLzi5M">
    <mxGraphModel dx="2430" dy="706" grid="1" gridSize="10" guides="1" tooltips="1" connect="1" arrows="1" fold="1" page="1" pageScale="1" pageWidth="827" pageHeight="1169" math="0" shadow="0">
      <root>
        <mxCell id="0" />
        <mxCell id="1" parent="0" />
        <mxCell id="qL52Xe9mibryE4UQHseE-4" value="" style="edgeStyle=orthogonalEdgeStyle;rounded=0;orthogonalLoop=1;jettySize=auto;html=1;shape=link;" parent="1" source="qL52Xe9mibryE4UQHseE-1" target="qL52Xe9mibryE4UQHseE-3" edge="1">
          <mxGeometry relative="1" as="geometry" />
        </mxCell>
        <mxCell id="qL52Xe9mibryE4UQHseE-6" value="" style="edgeStyle=orthogonalEdgeStyle;rounded=0;orthogonalLoop=1;jettySize=auto;html=1;shape=link;" parent="1" edge="1">
          <mxGeometry relative="1" as="geometry">
            <mxPoint x="440" y="100" as="sourcePoint" />
            <mxPoint x="320" y="150" as="targetPoint" />
          </mxGeometry>
        </mxCell>
        <mxCell id="qL52Xe9mibryE4UQHseE-10" value="" style="edgeStyle=orthogonalEdgeStyle;rounded=0;orthogonalLoop=1;jettySize=auto;html=1;shape=link;" parent="1" edge="1">
          <mxGeometry relative="1" as="geometry">
            <mxPoint x="460" y="100" as="sourcePoint" />
            <mxPoint x="570" y="150" as="targetPoint" />
          </mxGeometry>
        </mxCell>
        <mxCell id="qL52Xe9mibryE4UQHseE-12" value="" style="edgeStyle=orthogonalEdgeStyle;rounded=0;orthogonalLoop=1;jettySize=auto;html=1;shape=link;" parent="1" edge="1">
          <mxGeometry relative="1" as="geometry">
            <mxPoint x="550" y="69.99999999999989" as="sourcePoint" />
            <mxPoint x="790" y="120" as="targetPoint" />
          </mxGeometry>
        </mxCell>
        <mxCell id="qL52Xe9mibryE4UQHseE-14" value="" style="edgeStyle=orthogonalEdgeStyle;rounded=0;orthogonalLoop=1;jettySize=auto;html=1;shape=link;" parent="1" edge="1">
          <mxGeometry relative="1" as="geometry">
            <mxPoint x="447.5" y="95" as="sourcePoint" />
            <mxPoint x="442.5" y="205" as="targetPoint" />
            <Array as="points">
              <mxPoint x="447.5" y="135" />
              <mxPoint x="442.5" y="135" />
            </Array>
          </mxGeometry>
        </mxCell>
        <mxCell id="qL52Xe9mibryE4UQHseE-1" value="ADMIN HOMEPAGE&amp;nbsp;" style="rounded=1;whiteSpace=wrap;html=1;fillColor=none;strokeColor=#6c8ebf;gradientColor=default;" parent="1" vertex="1">
          <mxGeometry x="390" y="40" width="120" height="60" as="geometry" />
        </mxCell>
        <mxCell id="qL52Xe9mibryE4UQHseE-16" value="" style="edgeStyle=orthogonalEdgeStyle;rounded=0;orthogonalLoop=1;jettySize=auto;html=1;fillColor=#dae8fc;strokeColor=#6c8ebf;" parent="1" source="qL52Xe9mibryE4UQHseE-3" target="qL52Xe9mibryE4UQHseE-15" edge="1">
          <mxGeometry relative="1" as="geometry" />
        </mxCell>
        <mxCell id="qL52Xe9mibryE4UQHseE-3" value="NEW BOOKING" style="whiteSpace=wrap;html=1;rounded=1;fillColor=#dae8fc;strokeColor=#6c8ebf;" parent="1" vertex="1">
          <mxGeometry x="110" y="130" width="120" height="60" as="geometry" />
        </mxCell>
        <mxCell id="qL52Xe9mibryE4UQHseE-24" value="" style="edgeStyle=orthogonalEdgeStyle;rounded=0;orthogonalLoop=1;jettySize=auto;html=1;fillColor=#dae8fc;strokeColor=#6c8ebf;" parent="1" source="qL52Xe9mibryE4UQHseE-5" target="qL52Xe9mibryE4UQHseE-23" edge="1">
          <mxGeometry relative="1" as="geometry" />
        </mxCell>
        <mxCell id="qL52Xe9mibryE4UQHseE-5" value="CALENDAR" style="whiteSpace=wrap;html=1;rounded=1;fillColor=#dae8fc;strokeColor=#6c8ebf;" parent="1" vertex="1">
          <mxGeometry x="270" y="150" width="120" height="50" as="geometry" />
        </mxCell>
        <mxCell id="qL52Xe9mibryE4UQHseE-32" value="" style="edgeStyle=orthogonalEdgeStyle;rounded=0;orthogonalLoop=1;jettySize=auto;html=1;fillColor=#dae8fc;strokeColor=#6c8ebf;" parent="1" source="qL52Xe9mibryE4UQHseE-9" target="qL52Xe9mibryE4UQHseE-31" edge="1">
          <mxGeometry relative="1" as="geometry" />
        </mxCell>
        <mxCell id="qL52Xe9mibryE4UQHseE-9" value="NEW CLIENT" style="whiteSpace=wrap;html=1;rounded=1;fillColor=#dae8fc;strokeColor=#6c8ebf;" parent="1" vertex="1">
          <mxGeometry x="500" y="150" width="120" height="60" as="geometry" />
        </mxCell>
        <mxCell id="pyBMWA6m10mVQqwg_1T7-2" value="" style="edgeStyle=orthogonalEdgeStyle;rounded=0;orthogonalLoop=1;jettySize=auto;html=1;strokeColor=light-dark(#009999,#FFFFFF);" edge="1" parent="1" source="qL52Xe9mibryE4UQHseE-11" target="pyBMWA6m10mVQqwg_1T7-1">
          <mxGeometry relative="1" as="geometry" />
        </mxCell>
        <mxCell id="qL52Xe9mibryE4UQHseE-11" value="STATISTICS" style="whiteSpace=wrap;html=1;rounded=1;fillColor=#dae8fc;strokeColor=#6c8ebf;" parent="1" vertex="1">
          <mxGeometry x="730" y="120" width="120" height="60" as="geometry" />
        </mxCell>
        <mxCell id="qL52Xe9mibryE4UQHseE-28" value="" style="edgeStyle=orthogonalEdgeStyle;rounded=0;orthogonalLoop=1;jettySize=auto;html=1;fillColor=#dae8fc;strokeColor=#6c8ebf;" parent="1" source="qL52Xe9mibryE4UQHseE-13" target="qL52Xe9mibryE4UQHseE-27" edge="1">
          <mxGeometry relative="1" as="geometry" />
        </mxCell>
        <mxCell id="qL52Xe9mibryE4UQHseE-13" value="TODAY&#39;S BOOKING&amp;nbsp;" style="whiteSpace=wrap;html=1;rounded=1;fillColor=#dae8fc;strokeColor=#6c8ebf;" parent="1" vertex="1">
          <mxGeometry x="390" y="210" width="110" height="50" as="geometry" />
        </mxCell>
        <mxCell id="qL52Xe9mibryE4UQHseE-18" value="" style="edgeStyle=orthogonalEdgeStyle;rounded=0;orthogonalLoop=1;jettySize=auto;html=1;fillColor=#dae8fc;strokeColor=#6c8ebf;" parent="1" source="qL52Xe9mibryE4UQHseE-15" target="qL52Xe9mibryE4UQHseE-17" edge="1">
          <mxGeometry relative="1" as="geometry" />
        </mxCell>
        <mxCell id="qL52Xe9mibryE4UQHseE-22" value="" style="edgeStyle=orthogonalEdgeStyle;rounded=0;orthogonalLoop=1;jettySize=auto;html=1;shape=link;" parent="1" source="qL52Xe9mibryE4UQHseE-15" target="qL52Xe9mibryE4UQHseE-21" edge="1">
          <mxGeometry relative="1" as="geometry" />
        </mxCell>
        <mxCell id="qL52Xe9mibryE4UQHseE-15" value="INPUT VALUES IN A TKINTER FORM" style="whiteSpace=wrap;html=1;rounded=1;fillColor=#dae8fc;strokeColor=#6c8ebf;" parent="1" vertex="1">
          <mxGeometry x="110" y="230" width="120" height="60" as="geometry" />
        </mxCell>
        <mxCell id="qL52Xe9mibryE4UQHseE-20" value="" style="edgeStyle=orthogonalEdgeStyle;rounded=0;orthogonalLoop=1;jettySize=auto;html=1;fillColor=#dae8fc;strokeColor=#6c8ebf;" parent="1" source="qL52Xe9mibryE4UQHseE-17" target="qL52Xe9mibryE4UQHseE-19" edge="1">
          <mxGeometry relative="1" as="geometry" />
        </mxCell>
        <mxCell id="qL52Xe9mibryE4UQHseE-17" value="VALIDATE AND CHECK FOR AVAILABILITY" style="whiteSpace=wrap;html=1;rounded=1;fillColor=#dae8fc;strokeColor=#6c8ebf;" parent="1" vertex="1">
          <mxGeometry x="110" y="320" width="120" height="60" as="geometry" />
        </mxCell>
        <mxCell id="qL52Xe9mibryE4UQHseE-19" value="STORE IN DB" style="whiteSpace=wrap;html=1;rounded=1;fillColor=#dae8fc;strokeColor=#6c8ebf;" parent="1" vertex="1">
          <mxGeometry x="110" y="410" width="120" height="60" as="geometry" />
        </mxCell>
        <mxCell id="qL52Xe9mibryE4UQHseE-21" value="- First Name&amp;nbsp;&lt;div&gt;- Last Name&lt;/div&gt;&lt;div&gt;- Date of appointment&lt;/div&gt;&lt;div&gt;- Time/slot of appointment&lt;/div&gt;&lt;div style=&quot;&quot;&gt;- Additional Note&lt;/div&gt;" style="whiteSpace=wrap;html=1;rounded=1;fillColor=#CCCCCC;strokeColor=#666666;fontColor=#333333;align=left;" parent="1" vertex="1">
          <mxGeometry x="-70" y="260" width="130" height="170" as="geometry" />
        </mxCell>
        <mxCell id="qL52Xe9mibryE4UQHseE-26" value="" style="edgeStyle=orthogonalEdgeStyle;rounded=0;orthogonalLoop=1;jettySize=auto;html=1;fillColor=#dae8fc;strokeColor=#6c8ebf;" parent="1" source="qL52Xe9mibryE4UQHseE-23" target="qL52Xe9mibryE4UQHseE-25" edge="1">
          <mxGeometry relative="1" as="geometry" />
        </mxCell>
        <mxCell id="qL52Xe9mibryE4UQHseE-23" value="CHECKS DB FOR APPOINTMENTS" style="whiteSpace=wrap;html=1;rounded=1;fillColor=#dae8fc;strokeColor=#6c8ebf;" parent="1" vertex="1">
          <mxGeometry x="270" y="250" width="120" height="50" as="geometry" />
        </mxCell>
        <mxCell id="qL52Xe9mibryE4UQHseE-25" value="DISPLAYS CALENDAR IN A TKINTER WINDOW" style="whiteSpace=wrap;html=1;rounded=1;fillColor=#dae8fc;strokeColor=#6c8ebf;" parent="1" vertex="1">
          <mxGeometry x="270" y="350" width="120" height="50" as="geometry" />
        </mxCell>
        <mxCell id="qL52Xe9mibryE4UQHseE-30" value="" style="edgeStyle=orthogonalEdgeStyle;rounded=0;orthogonalLoop=1;jettySize=auto;html=1;fillColor=#dae8fc;strokeColor=#6c8ebf;" parent="1" source="qL52Xe9mibryE4UQHseE-27" target="qL52Xe9mibryE4UQHseE-29" edge="1">
          <mxGeometry relative="1" as="geometry" />
        </mxCell>
        <mxCell id="qL52Xe9mibryE4UQHseE-27" value="CHECKS DB FOR THE DAY&#39;S BOOKINGS" style="whiteSpace=wrap;html=1;rounded=1;fillColor=#dae8fc;strokeColor=#6c8ebf;" parent="1" vertex="1">
          <mxGeometry x="390" y="300" width="110" height="50" as="geometry" />
        </mxCell>
        <mxCell id="qL52Xe9mibryE4UQHseE-29" value="DISPLAYS THE BOOKINGS IN A TABLE" style="whiteSpace=wrap;html=1;rounded=1;fillColor=#dae8fc;strokeColor=#6c8ebf;" parent="1" vertex="1">
          <mxGeometry x="390" y="410" width="110" height="50" as="geometry" />
        </mxCell>
        <mxCell id="qL52Xe9mibryE4UQHseE-34" value="" style="edgeStyle=orthogonalEdgeStyle;rounded=0;orthogonalLoop=1;jettySize=auto;html=1;fillColor=#dae8fc;strokeColor=#6c8ebf;" parent="1" source="qL52Xe9mibryE4UQHseE-31" target="qL52Xe9mibryE4UQHseE-33" edge="1">
          <mxGeometry relative="1" as="geometry" />
        </mxCell>
        <mxCell id="pyBMWA6m10mVQqwg_1T7-7" value="" style="edgeStyle=orthogonalEdgeStyle;rounded=0;orthogonalLoop=1;jettySize=auto;html=1;shape=link;" edge="1" parent="1" source="qL52Xe9mibryE4UQHseE-31" target="pyBMWA6m10mVQqwg_1T7-6">
          <mxGeometry relative="1" as="geometry" />
        </mxCell>
        <mxCell id="qL52Xe9mibryE4UQHseE-31" value="INPUT VLUES IN A TKINTER FORM" style="whiteSpace=wrap;html=1;rounded=1;fillColor=#dae8fc;strokeColor=#6c8ebf;" parent="1" vertex="1">
          <mxGeometry x="500" y="260" width="120" height="40" as="geometry" />
        </mxCell>
        <mxCell id="qL52Xe9mibryE4UQHseE-36" value="" style="edgeStyle=orthogonalEdgeStyle;rounded=0;orthogonalLoop=1;jettySize=auto;html=1;fillColor=#dae8fc;strokeColor=#6c8ebf;" parent="1" source="qL52Xe9mibryE4UQHseE-33" target="qL52Xe9mibryE4UQHseE-35" edge="1">
          <mxGeometry relative="1" as="geometry" />
        </mxCell>
        <mxCell id="qL52Xe9mibryE4UQHseE-33" value="VALIDATE DETAILS&amp;nbsp;" style="whiteSpace=wrap;html=1;rounded=1;fillColor=#dae8fc;strokeColor=#6c8ebf;" parent="1" vertex="1">
          <mxGeometry x="500" y="360" width="120" height="50" as="geometry" />
        </mxCell>
        <mxCell id="qL52Xe9mibryE4UQHseE-35" value="STORE IN DB" style="whiteSpace=wrap;html=1;rounded=1;fillColor=#dae8fc;strokeColor=#6c8ebf;" parent="1" vertex="1">
          <mxGeometry x="500" y="470" width="120" height="50" as="geometry" />
        </mxCell>
        <mxCell id="pyBMWA6m10mVQqwg_1T7-4" value="" style="edgeStyle=orthogonalEdgeStyle;rounded=0;orthogonalLoop=1;jettySize=auto;html=1;fillColor=#009999;strokeColor=light-dark(#009999,#FFFFFF);" edge="1" parent="1" source="pyBMWA6m10mVQqwg_1T7-1" target="pyBMWA6m10mVQqwg_1T7-3">
          <mxGeometry relative="1" as="geometry" />
        </mxCell>
        <mxCell id="pyBMWA6m10mVQqwg_1T7-1" value="GET RECORDS FROM DB" style="whiteSpace=wrap;html=1;rounded=1;fillColor=#dae8fc;strokeColor=#6c8ebf;" vertex="1" parent="1">
          <mxGeometry x="730" y="220" width="120" height="60" as="geometry" />
        </mxCell>
        <mxCell id="pyBMWA6m10mVQqwg_1T7-3" value="DISPLAY IN A TKINTER WINDOW&amp;nbsp;" style="whiteSpace=wrap;html=1;rounded=1;fillColor=#dae8fc;strokeColor=#6c8ebf;" vertex="1" parent="1">
          <mxGeometry x="730" y="310" width="120" height="60" as="geometry" />
        </mxCell>
        <mxCell id="pyBMWA6m10mVQqwg_1T7-6" value="- First Name&lt;div&gt;- Last Name&lt;/div&gt;&lt;div&gt;- Email address&lt;/div&gt;&lt;div&gt;- Contact Number&amp;nbsp;&lt;/div&gt;" style="whiteSpace=wrap;html=1;fillColor=#CCCCCC;strokeColor=#6c8ebf;rounded=1;" vertex="1" parent="1">
          <mxGeometry x="640" y="390" width="140" height="120" as="geometry" />
        </mxCell>
      </root>
    </mxGraphModel>
  </diagram>
</mxfile>
